<?xml version="1.0" encoding="UTF-8"?>
<svg xmlns="http://www.w3.org/2000/svg" xml:space="preserve" fill-rule="evenodd" stroke-linejoin="round" stroke-miterlimit="2" clip-rule="evenodd" viewBox="0 0 1936 1008">
  <title>Bitform</title>
  <style>
    #background {
      fill: #19191a;
    }
    #text {
      fill: #eac99b;
    }
    @media (prefers-color-scheme: light) {
      #background {
        fill: #eac99b;
      }
      #text {
        fill: #19191a;
      }
    }
    @media (prefers-color-scheme: dark) {
      #background {
        fill: #19191a;
      }
      #text {
        fill: #eac99b;
      }
    }
  </style>
  <rect id="background" width="1936" height="1008"></rect>
  <path id="text" d="M64 160V80h16V64h48v16h16v80h-16v-32H96v-16h32V96h-16V80H96v16H80v64H64Zm128 0V64h64v16h-48v64h48v16h-64Zm64-80h16v32h-16V80Zm0 32v16h-32v-16h32Zm0 16h16v16h-16v-16Zm128-48h16v16h-16V80Zm-48 0V64h48v16h-48Zm48 64v-16h16v16h-16Zm-48 0h48v16h-48v-16Zm-16 0V80h16v64h-16Zm128 16V64h48v16h-32v64h32v-16h16V96h16v48h-16v16h-64Zm48-80h16v16h-16V80Zm80 80V64h80v16h-64v32h48v16h-48v16h64v16h-80Zm128 0V64h80v16h-64v32h48v16h-48v32h-16Zm144-16h48v16h-48v-16Zm-16 0V80h16V64h64v16h-48v16h-16v48h-16Zm64 0v-16h-16v-16h32v32h-16Zm64 16V64h16v48h48V64h16v96h-16v-32h-48v32h-16Zm448-80V64h16v16h-16Zm-16 16V80h16v16h-16Zm-16 16V96h16v16h-16Zm32 32h16v16h-16v-16Zm-32-16h32v16h-32v-16Zm-32 32V64h16v48h16v16h-16v32h-16Zm128 0V64h16v80h64v16h-80Zm208-64V80h16V64h16v96h-16V96h-16Zm-16 16V96h16v16h-16Zm-16 0h16v16h-16v-16Zm-16-16h16v16h-16V96Zm-32 64V64h16v16h16v16h-16v64h-16Zm-480-80h-32V64h80v16h-32v64h32v16h-80v-16h32V80Zm112 64h-16v-16h16v16Zm32 0V80h-32V64h64v16h-16v64h-16Zm-32 0h32v16h-32v-16ZM384 304v16h-32v-16h32Zm0-32h16v32h-16v-32Zm-64 80v-96h64v16h-48v80h-16Zm320-80h16v32h-16v-32Zm-64 80v-96h64v16h-48v80h-16Zm64-32h16v32h-16v-32Zm0-16v16h-32v-16h32Zm224-32h-32v-16h80v16h-32v80h-16v-80Zm160 64v-80h16v80h-16Zm-48 0h48v16h-48v-16Zm-16 0v-80h16v80h-16Zm144-32h-16v-48h16v48Zm48 0v-48h16v48h-16Zm-16 32v-32h16v32h-16Zm-16 0h16v16h-16v-16Zm-16-32h16v32h-16v-32Zm128-16h-16v-32h16v32Zm80 0v-32h16v32h-16Zm-16 32v-32h16v32h-16Zm-16 0h16v32h-16v-32Zm-16 0v-32h16v32h-16Zm-16 0h16v32h-16v-32Zm-16-32h16v32h-16v-32Zm288 0h-16v-32h16v32Zm48 0v-32h16v32h-16Zm-16 16v-16h16v16h-16Zm-16 0h16v48h-16v-48Zm-16-16h16v16h-16v-16ZM112 320h16v-64h16v96h-16v-16h-16v-16Zm-16-32h16v32H96v-32Zm-32 64v-96h16v16h16v16H80v64H64Zm128-16v-64h16v64h-16Zm16-64v-16h48v16h-48Zm48 0h16v64h-16v-64Zm0 64v16h-48v-16h48Zm256 0h16v16h-16v-16Zm-64 0v-64h16v64h-16Zm16-64v-16h48v16h-48Zm48 0h16v48h-16v-48Zm0 48v16h-16v-16h16Zm-16 16v16h-32v-16h32Zm0-16h-16v-16h16v16Zm272-48h16v16h-16v-16Zm-48 0v-16h48v16h-48Zm16 32h-32v-32h16v16h16v16Zm-16 32h-16v-16h16v16Zm48 0v16h-48v-16h48Zm0-16h16v16h-16v-16Zm-32-16h32v16h-32v-16Zm656-16h-16v-32h16v32Zm48 0v-32h16v32h-16Zm-16 16v-16h16v16h-16Zm16 32h16v16h-16v-16Zm-16-16h16v16h-16v-16Zm-32 16v16h-16v-16h16Zm16-16v16h-16v-16h16Zm0-16h16v16h-16v-16Zm-16-16h16v16h-16v-16Zm272 32v16h48v16h-80v-16h16v-16h16Zm16-16v16h-16v-16h16Zm16-16v16h-16v-16h16Zm0-16h-64v-16h80v32h-16v-16ZM80 480v16H64v-16h16Zm0 0v-16h16v-16h16v96H96v-64H80Zm384 48h-48v-32h16v16h32v-48h16v48h16v16h-16v16h-16v-16Zm-32-32v-32h16v32h-16Zm16-32v-16h16v16h-16Zm256 0v-16h48v16h-48Zm-16 16v-16h16v16h-16Zm-16 48v-48h16v32h16v16h32v16h-48v-16h-16Zm32-16v-16h16v16h-16Zm16-16v-16h16v16h-16Zm16 0h16v32h-16v-32Zm208-16h-16v-16h16v16Zm0-16v-16h48v16h-48Zm48 0h16v16h-16v-16Zm0 16v16h-48v-16h48Zm0 16h16v32h-16v-32Zm0 32v16h-48v-16h48Zm-48 0h-16v-32h16v32Zm240 0v-64h16v-16h48v16h16v64h-16v16h-48v-16h-16Zm32-64v16h-16v32h16v16h16v-16h16v-32h-16v-16h-16ZM176 512v16h64v16h-80v-32h16Zm48-16v16h-48v-16h48Zm0-32h16v32h-16v-32Zm-48 0v-16h48v16h-48Zm0 0v16h-16v-16h16Zm128 64h-16v-16h16v16Zm48-48v-16h-48v-16h64v32h-16Zm0 16h-32v-16h32v16Zm0 32v-32h16v32h-16Zm-48 0h48v16h-48v-16Zm256 0h-16v-16h16v16Zm48 0v16h-48v-16h48Zm0-32h16v32h-16v-32Zm0 0h-64v-48h80v16h-64v16h48v16Zm224 16v32h-16v-32h16Zm16-16v16h-16v-16h16Zm16-16v16h-16v-16h16Zm0-16h-64v-16h80v32h-16v-16Zm256 64v16h-48v-16h48Zm-48-32h-16v-32h16v32Zm0-32v-16h48v16h-48Zm48 0h16v64h-16v-16h-48v-16h48v-32ZM64 704v-64h16v64H64Zm176-16h-16v-16h16v-16h16v16h16v-16h16v16h16v16h-16v16h16v16h-16v16h-16v-16h-16v16h-16v-16h-16v-16h16v-16Zm32 0h-16v16h16v-16Zm560-16v16h-16v-16h16Zm0 0v-32h16v32h-16Zm336 0h-16v-16h16v16Zm48 0v-16h16v16h-16Zm0 16h16v16h-16v-16Zm-48 0v16h-16v-16h16Zm0-16h16v16h-16v-16Zm16 0v-32h16v32h-16Zm16 0h16v16h-16v-16Zm0 16v32h-16v-32h16Zm112 16h-32v-16h32v-32h16v32h32v16h-32v32h-16v-32Zm-944 16h-16v-16h16v16Zm0-48h-16v-16h16v16Zm0-16v-16h32v-16h16v16h32v16h-32v16h32v16h-32v32h32v16h-32v16h-16v-16h-32v-16h32v-32h-32v-16h32v-16h-32Zm80 32h16v32h-16v-32Zm80 32v16h-16v-16h16Zm48-48v-16h16v16h-16Zm-16 16v-16h16v16h-16Zm-16 16v-16h16v16h-16Zm-16 16v-16h16v16h-16Zm192 0v-32h32v16h-16v16h-16Zm-16 0h16v16h-16v-16Zm-48-48h-16v-16h16v16Zm0-16v-16h48v16h-48Zm48 0h16v16h-16v-16Zm0 16v16h-16v-16h16Zm-16 16v16h-16v-16h16Zm0 16h16v16h-16v-16Zm0 16v16h-32v-16h32Zm-32 0h-16v-32h16v32Zm0-32v-16h16v16h-16Zm272-48v-16h32v16h-32Zm-16 16v-16h16v16h-16Zm16 80h32v16h-32v-16Zm-16-16h16v16h-16v-16Zm-16 0v-64h16v64h-16Zm544 16v16h-16v-16h16Zm0 0v-32h16v32h-16Zm144-32h-80v-16h80v16Zm128 0v32h-16v-32h16Zm16-32v-32h16v32h-16Zm-16 32v-32h16v32h-16Zm-640 32v16h-32v-16h32Zm16-16v16h-16v-16h16Zm0-64h16v64h-16v-64Zm-16-16h16v16h-16v-16Zm0 0h-32v-16h32v16ZM448 832h-16v-16h16v16Zm0 80v16h-16v-16h16Zm16-16v16h-16v-16h16Zm16-16v16h-16v-16h16Zm0-16h16v16h-16v-16Zm-16-16h16v16h-16v-16Zm-16-16h16v16h-16v-16Zm384 112V816h32v16h-16v96h16v16h-32Zm224-112h-16v-16h32v128h-32v-16h16v-96Zm448 0v-16h32v16h-32Zm-16 48v-48h16v48h-16Zm0 16h-16v-16h16v16Zm16 32h32v16h-32v-16Zm-16-32h16v32h-16v-32ZM368 864h-80v-16h80v16Zm192-16v16h-16v-16h16Zm32 32v16h-16v-16h16Zm16-16v16h-16v-16h16Zm0-16h16v16h-16v-16Zm-48 0v-16h48v16h-48Zm384 16h-16v-32h16v32Zm16 32h16v32h-16v-32Zm-16-32h16v32h-16v-32Zm192 0v16h-16v-16h16Zm48 0h16v16h-16v-16Zm-16-16h16v16h-16v-16Zm-16 0v-16h16v16h-16Zm-16 16v-16h16v16h-16Zm272-16h-16v-16h16v16Zm0 0h16v16h-16v-16Zm192 80v-96h16v96h-16Zm208-48v16h-16v-16h16Zm48 0v-16h16v16h-16Zm-48 0v-16h32v16h16v16h-32v-16h-16ZM96 928v16H80v-16h16Zm0 0v-32h16v32H96Zm112-96v-16h16v16h-16Zm-16 16v-16h16v16h-16Zm-16 16v-16h16v16h-16Zm0 16h-16v-16h16v16Zm32 32h16v16h-16v-16Zm-16-16h16v16h-16v-16Zm-16-16h16v16h-16v-16Zm192 32h-80v-16h80v16Zm384 0h-16v-32h-16v-16h32v48Zm-16 0v16h-16v-16h16Zm-16 0h-16v-32h16v32Zm48 0v16h-16v-16h16Zm0-64h16v64h-16v-64Zm-96 80v-80h16v-16h80v16h-64v16h-16v64h-16Zm656 0h-80v-16h80v16Zm384 0v16h-32v-16h32Zm16-32v32h-16v-32h16Zm0-16h16v16h-16v-16Zm-16-48h16v48h-16v-48Zm0 0h-32v-16h32v16ZM128 672v-32h16v32h-16Zm32 0v-32h16v32h-16Zm352 0v-16h16v16h-16Zm1280 0v-16h16v16h-16ZM80 736H64v-16h16v16Zm512 0h-16v-16h16v16Zm1056 0h-16v-16h16v16Zm144-16v-16h16v16h-16ZM112 880H96v-16h16v16Zm480 48h-16v-16h16v16Z"></path>
</svg>
